<svg width="640" height="326" viewBox="0 0 640 326" fill="none" xmlns="http://www.w3.org/2000/svg">
<g clip-path="url(#clip0_29_22)">
<path d="M113.071 326C50.6988 326 0 276.457 0 215.501C0 185.426 12.7783 156.223 35.0886 135.479C36.1937 134.472 37.9205 134.472 39.0257 135.546C40.0617 136.621 40.0617 138.299 38.9566 139.373C17.7515 159.11 5.52576 186.835 5.52576 215.501C5.52576 273.503 53.738 320.629 113.071 320.629C172.404 320.629 220.616 273.436 220.616 215.501C220.616 186.768 209.012 159.983 187.876 139.977L187.392 139.507C186.287 138.433 186.287 136.755 187.392 135.681C188.497 134.607 190.224 134.607 191.329 135.681L191.813 136.151C213.985 157.096 226.211 185.291 226.211 215.501C226.142 276.457 175.374 326 113.071 326Z" fill="#9E2A2B"/>
<path d="M120.185 210.667C119.84 210.667 119.494 210.6 119.218 210.466C118.735 210.264 118.32 210.063 117.837 209.727C116.662 208.787 116.455 207.109 117.422 205.968C118.389 204.827 120.116 204.625 121.29 205.565C122.672 206.102 123.293 207.646 122.741 208.989C122.326 210.063 121.29 210.667 120.185 210.667Z" fill="#9E2A2B"/>
<path d="M118.32 209.459C117.768 209.459 117.284 209.325 116.801 208.989C116.179 208.586 115.695 208.183 115.35 207.646C114.521 206.438 114.797 204.76 116.11 203.887C117.353 203.081 118.942 203.35 119.84 204.491C121.083 205.297 121.428 206.975 120.599 208.183C120.047 209.056 119.218 209.459 118.32 209.459Z" fill="#9E2A2B"/>
<path d="M115.972 206.975C115.488 206.975 114.936 206.841 114.521 206.572C113.969 206.236 113.554 205.767 113.347 205.297C113.209 205.028 113.002 204.76 112.863 204.491C112.173 203.148 112.725 201.537 114.107 200.866C115.488 200.195 117.146 200.732 117.837 202.074C117.906 202.276 117.975 202.343 117.975 202.343C118.113 202.477 118.182 202.611 118.251 202.746C118.873 203.618 118.873 204.76 118.32 205.699C117.837 206.505 116.939 206.975 115.972 206.975Z" fill="#9E2A2B"/>
<path d="M115.005 205.23C114.038 205.23 113.071 204.76 112.587 203.887C112.311 203.484 112.173 203.081 112.035 202.746L111.965 202.544C111.413 201.134 112.173 199.59 113.554 199.053C115.005 198.516 116.593 199.255 117.146 200.597L117.215 200.799C117.284 200.933 117.284 201.067 117.353 201.202C118.113 202.477 117.629 204.155 116.317 204.827C115.972 205.162 115.488 205.23 115.005 205.23Z" fill="#9E2A2B"/>
<path d="M114.107 203.014C112.863 203.014 111.827 202.209 111.482 201.067C111.137 200.128 111.344 199.053 112.104 198.315C113.209 197.241 114.936 197.241 116.041 198.315C116.386 198.651 116.87 199.322 116.87 200.329C116.87 201.806 115.695 203.014 114.107 203.014Z" fill="#9E2A2B"/>
<path d="M113.485 200.06C112.104 200.06 110.929 199.053 110.722 197.711C110.722 197.644 110.722 197.576 110.722 197.509C110.653 197.241 110.653 196.905 110.584 196.502C110.515 196.1 110.515 195.697 110.446 195.227C110.308 193.75 111.413 192.474 112.933 192.34C114.452 192.206 115.764 193.28 115.903 194.757C115.972 195.227 115.972 195.697 116.041 196.1C116.041 196.167 116.041 196.234 116.041 196.368C116.041 196.435 116.041 196.57 116.11 196.637C116.11 196.771 116.179 196.905 116.179 197.039C116.386 198.516 115.281 199.859 113.761 200.06C113.761 200.06 113.623 200.06 113.485 200.06Z" fill="#9E2A2B"/>
<path d="M112.932 200.195C112.794 200.195 112.656 200.195 112.518 200.128C110.998 199.926 109.962 198.516 110.239 197.039C110.377 196.368 110.446 195.63 110.446 194.824C110.515 193.347 111.758 192.206 113.347 192.273C114.866 192.34 116.041 193.616 115.972 195.093C115.903 196.1 115.833 197.039 115.695 197.912C115.419 199.255 114.245 200.195 112.932 200.195Z" fill="#9E2A2B"/>
<path d="M112.311 202.947C111.965 202.947 111.689 202.88 111.344 202.746C109.893 202.209 109.203 200.665 109.755 199.255C109.824 199.121 109.893 198.852 109.962 198.583L115.35 199.725C115.281 200.195 115.143 200.665 114.936 201.135C114.452 202.276 113.416 202.947 112.311 202.947Z" fill="#9E2A2B"/>
<path d="M110.584 206.706C109.893 206.706 109.203 206.438 108.65 205.901C107.614 204.894 107.545 203.35 108.512 202.276C108.512 202.276 108.512 202.276 108.512 202.209C109.064 200.933 110.584 200.262 111.965 200.665C113.416 201.134 114.176 202.679 113.692 204.088C113.623 204.357 113.485 204.625 113.278 204.894C113.071 205.23 112.863 205.565 112.587 205.834C112.035 206.438 111.344 206.706 110.584 206.706Z" fill="#9E2A2B"/>
<path d="M108.512 209.19C107.752 209.19 106.992 208.855 106.44 208.25C105.473 207.109 105.542 205.431 106.716 204.491C106.923 204.29 107.13 204.088 107.338 203.887C107.407 203.82 107.407 203.82 107.476 203.753C107.614 203.618 107.683 203.484 107.752 203.35C108.512 202.074 110.17 201.604 111.482 202.343C112.794 203.081 113.278 204.692 112.518 205.968C112.173 206.505 111.827 207.042 111.413 207.445C111.068 207.848 110.653 208.183 110.308 208.519C109.824 208.922 109.203 209.19 108.512 209.19Z" fill="#9E2A2B"/>
<path d="M106.094 210.801C104.575 210.801 103.331 209.593 103.331 208.116C103.331 207.042 103.953 206.102 104.92 205.699C105.956 205.162 107.2 205.23 108.167 206.035C109.272 207.042 109.41 208.72 108.374 209.795C107.545 210.667 106.578 210.801 106.094 210.801Z" fill="#9E2A2B"/>
<path d="M113.485 211.943C110.446 211.943 107.407 211.741 104.506 211.339C102.986 211.137 101.95 209.727 102.157 208.318C102.364 206.841 103.815 205.834 105.266 206.035C107.959 206.438 110.722 206.639 113.485 206.639C116.317 206.639 118.873 206.438 121.221 206.102C122.741 205.901 124.122 206.841 124.398 208.318C124.606 209.795 123.639 211.137 122.119 211.406C119.494 211.741 116.662 211.943 113.485 211.943Z" fill="#9E2A2B"/>
<path d="M60.8523 184.351C60.0235 184.351 59.1946 183.949 58.642 183.277C49.1101 170.992 42.8246 155.82 40.4761 139.44C40.2689 137.963 41.305 136.621 42.8246 136.419C44.3441 136.218 45.7256 137.225 45.9328 138.702C48.2122 154.142 54.0833 168.441 63.0626 180.055C63.9606 181.263 63.7533 182.942 62.51 183.814C62.0265 184.217 61.4049 184.351 60.8523 184.351Z" fill="#9E2A2B"/>
<path d="M60.8523 184.419C59.3327 184.419 58.0894 183.21 58.0894 181.733C58.0894 180.525 58.8492 179.518 59.9544 179.182C60.0925 179.115 60.2306 179.115 60.4379 179.048C60.576 179.048 60.7141 178.981 60.8523 178.914C61.0595 178.847 61.3358 178.779 61.543 178.779L61.8884 178.712C62.7172 178.511 63.6152 178.31 64.5131 178.041C65.9636 177.638 67.4832 178.511 67.8976 179.921C68.312 181.331 67.4141 182.807 65.9636 183.21C65.0657 183.479 64.0987 183.68 63.2007 183.882L62.7863 183.949C62.5791 184.016 62.3719 184.016 62.2337 184.083C62.0956 184.15 61.8884 184.15 61.7502 184.217C61.4739 184.351 61.1286 184.419 60.8523 184.419Z" fill="#9E2A2B"/>
<path d="M70.246 182.136C69.0027 182.136 67.8285 181.263 67.5522 179.988C67.2069 178.511 68.1739 177.101 69.6935 176.766L69.8316 176.698C71.9038 176.296 73.9759 175.826 76.0481 175.423C77.5677 175.154 79.0182 176.094 79.2945 177.571C79.5707 179.048 78.6037 180.458 77.0842 180.726C75.0811 181.129 72.9398 181.532 70.9368 182.002L70.7986 182.069C70.6605 182.136 70.4533 182.136 70.246 182.136Z" fill="#9E2A2B"/>
<path d="M76.9461 180.861C75.6337 180.861 74.4595 179.921 74.2523 178.645C73.976 177.168 75.012 175.759 76.4625 175.557C76.9461 175.49 77.4296 175.356 77.9821 175.289L79.0873 175.087C79.4326 175.02 79.778 174.953 80.0543 174.886C80.1234 174.886 80.1234 174.886 80.1924 174.886L81.1594 174.752C81.712 174.684 82.2646 174.617 82.8172 174.55C82.9553 174.55 83.1625 174.483 83.3007 174.483H83.3697C84.8893 174.215 86.2708 175.154 86.6161 176.631C86.8924 178.108 85.9254 179.518 84.4058 179.787C84.1986 179.854 84.0605 179.854 83.8532 179.854H83.7842C83.7151 179.854 83.7151 179.854 83.7151 179.854C83.1625 179.921 82.6099 179.988 81.9883 180.055L81.0904 180.189C80.745 180.256 80.3997 180.324 80.0543 180.391L78.9491 180.592C78.4656 180.659 77.9821 180.726 77.4986 180.861C77.2223 180.794 77.0842 180.861 76.9461 180.861Z" fill="#9E2A2B"/>
<path d="M109.893 185.157C109.134 185.157 108.374 184.821 107.821 184.217C107.545 183.949 107.338 183.68 107.061 183.412C105.956 182.338 105.956 180.659 107.061 179.585C108.167 178.511 109.893 178.511 110.998 179.585C111.413 179.988 111.689 180.324 112.035 180.659C113.071 181.8 112.932 183.479 111.758 184.486C111.206 184.956 110.584 185.157 109.893 185.157Z" fill="#9E2A2B"/>
<path d="M116.593 185.09C115.834 185.09 115.143 184.821 114.59 184.284C113.554 183.277 113.554 181.666 114.521 180.659C114.867 180.256 115.212 179.921 115.557 179.585C116.662 178.578 118.389 178.578 119.494 179.585C120.53 180.659 120.53 182.337 119.494 183.412C119.356 183.546 119.011 183.882 118.873 184.016C118.804 184.15 118.665 184.284 118.527 184.351C117.975 184.889 117.284 185.09 116.593 185.09Z" fill="#9E2A2B"/>
<path d="M165.496 184.351C165.289 184.351 165.013 184.351 164.806 184.284H164.668C164.322 184.217 163.977 184.083 163.562 183.949C162.112 183.479 161.352 181.935 161.836 180.525C162.319 179.115 163.908 178.377 165.358 178.847C165.635 178.914 165.842 178.981 166.118 179.048H166.256C167.707 179.384 168.605 180.861 168.259 182.337C167.845 183.546 166.671 184.351 165.496 184.351Z" fill="#9E2A2B"/>
<path d="M166.118 184.553C165.566 184.553 164.944 184.351 164.46 184.016C163.217 183.143 163.01 181.465 163.908 180.256C172.956 168.508 180.278 152.531 183.041 138.5C183.248 137.225 184.422 136.218 185.735 136.218C187.254 136.218 188.497 137.426 188.497 138.903V138.97C188.497 139.172 188.497 139.306 188.428 139.44C185.527 154.209 177.791 171.059 168.259 183.479C167.776 184.15 166.947 184.553 166.118 184.553Z" fill="#9E2A2B"/>
<path d="M128.681 212.547C126.54 212.547 124.537 212.346 122.741 211.876H122.672C122.05 211.674 121.359 211.473 120.599 211.204C120.185 211.003 119.563 210.802 118.942 210.466C118.596 210.332 118.32 210.13 117.975 209.929C117.491 209.66 117.008 209.325 116.593 208.989C116.317 208.788 115.972 208.519 115.695 208.183C114.936 207.512 114.314 206.707 113.899 206.102C113.692 205.901 113.554 205.7 113.485 205.431C113.347 205.23 113.209 205.028 113.14 204.827L113.071 204.693C113.071 204.625 113.002 204.625 113.002 204.558L112.656 203.887C112.38 203.417 112.242 202.947 112.104 202.611C112.035 202.343 111.896 202.074 111.827 201.806C111.758 201.672 111.689 201.47 111.689 201.336C111.689 201.269 111.62 201.202 111.62 201.202C111.62 201.135 111.551 201.067 111.551 201C111.206 199.859 110.998 198.785 110.86 197.711V197.509C110.86 197.241 110.791 196.972 110.791 196.704C110.722 196.234 110.722 195.764 110.653 195.294C110.653 195.227 110.653 195.16 110.653 195.093C110.653 194.891 110.653 194.757 110.653 194.556C110.653 194.287 110.653 194.019 110.653 193.75C110.653 193.683 110.653 193.616 110.653 193.482C110.653 193.414 110.653 193.347 110.653 193.213C110.653 188.111 111.965 183.949 114.59 180.794C114.659 180.726 114.728 180.659 114.797 180.592C115.074 180.257 115.419 179.921 115.764 179.585C118.735 176.699 123.017 174.886 128.405 174.215C138.973 172.805 152.994 175.759 165.358 178.78C165.634 178.847 165.911 178.914 166.118 178.981C166.187 178.981 166.256 179.048 166.325 179.048C166.532 179.115 166.739 179.115 167.016 179.182H167.085C170.746 180.122 176.893 174.953 181.452 171.194C186.149 167.233 189.879 164.145 193.332 164.615C194.575 164.749 195.542 165.689 195.681 166.897C195.819 168.038 195.197 169.18 194.092 169.717C192.918 170.455 189.602 175.222 186.978 179.048C181.314 187.305 174.821 196.704 168.812 199.658C150.991 208.385 138.006 212.547 128.681 212.547ZM121.29 205.565C121.359 205.632 121.497 205.632 121.566 205.7C121.912 205.901 122.326 206.035 122.741 206.237C123.224 206.438 123.639 206.572 124.191 206.707C136.072 209.66 158.727 198.584 166.187 194.958C170.262 193.012 175.719 185.627 180.208 179.182C175.512 182.808 170.469 185.694 165.703 184.553C165.565 184.553 165.358 184.486 165.22 184.419C165.151 184.419 165.151 184.419 165.082 184.419H164.944C164.875 184.419 164.875 184.419 164.805 184.352C164.598 184.284 164.46 184.284 164.253 184.217C164.115 184.15 163.977 184.15 163.838 184.083H163.769C151.958 181.129 138.558 178.377 128.888 179.652C124.744 180.189 121.566 181.465 119.425 183.479C119.218 183.68 118.942 183.949 118.665 184.284L118.596 184.352C116.801 186.5 115.972 189.454 115.972 193.28C115.972 193.347 115.972 193.414 115.972 193.549C115.972 193.616 115.972 193.683 115.972 193.817C115.972 194.019 115.972 194.153 115.972 194.354C115.972 194.556 115.972 194.824 115.972 195.026C116.041 195.495 116.041 195.898 116.11 196.301C116.11 196.502 116.179 196.771 116.179 197.04V197.241C116.248 197.979 116.386 198.718 116.593 199.523C116.662 199.658 116.662 199.725 116.731 199.859C116.801 199.993 116.801 200.128 116.87 200.195C116.939 200.396 117.008 200.598 117.077 200.799C117.077 200.866 117.077 200.866 117.146 200.933C117.146 201 117.284 201.336 117.353 201.403C117.353 201.47 117.422 201.47 117.422 201.537L117.837 202.343C117.906 202.41 117.906 202.477 117.975 202.544C118.113 202.679 118.182 202.813 118.251 202.947C118.527 203.35 118.942 203.954 119.425 204.357C119.563 204.424 119.632 204.558 119.702 204.625C119.702 204.625 119.771 204.693 119.978 204.827C120.323 205.095 120.599 205.297 120.945 205.498C121.083 205.431 121.221 205.498 121.29 205.565Z" fill="#9E2A2B"/>
<path d="M97.8057 212.547C85.5109 212.547 69.0718 205.23 57.8131 199.725C51.8039 196.771 45.3802 187.44 39.7163 179.182C37.0916 175.356 33.7761 170.589 32.6019 169.784C31.4967 169.314 30.8751 168.173 31.0133 166.964C31.1514 165.756 32.1184 164.816 33.3617 164.682C33.5689 164.682 33.7761 164.615 34.0524 164.615C37.2988 164.615 40.8214 167.501 45.242 171.194C49.5936 174.819 54.9812 179.317 58.7111 179.317C59.0564 179.317 59.3327 179.249 59.609 179.182C59.6781 179.182 59.7471 179.182 59.7471 179.115H59.8853C60.0925 179.048 60.2997 178.981 60.5069 178.981C60.8523 178.914 61.1976 178.779 61.4739 178.779C62.51 178.511 63.5461 178.242 64.5822 178.041C66.5852 177.571 68.1739 177.168 69.6935 176.833L69.9007 176.766C71.9729 176.363 74.045 175.893 76.1172 175.49C76.1862 175.49 76.3244 175.49 76.3935 175.423C76.3935 175.423 76.3935 175.423 76.4625 175.423C76.946 175.356 77.4295 175.221 77.9821 175.154L80.1233 174.819H80.1924L82.8171 174.483C83.0244 174.416 83.3697 174.416 83.7151 174.349C89.379 173.677 94.2831 173.61 98.3583 174.147C103.884 174.886 108.028 176.631 110.998 179.585C111.068 179.652 111.068 179.652 111.137 179.719L111.206 179.786C111.413 180.055 111.689 180.324 111.965 180.592C112.035 180.659 112.104 180.726 112.173 180.793C114.728 183.949 116.041 188.111 116.041 193.146V193.616C116.041 193.884 116.041 194.153 116.041 194.421C116.041 194.623 116.041 194.757 116.041 194.958C116.041 195.025 116.041 195.025 116.041 195.093C115.972 196.032 115.903 196.972 115.764 197.912C115.695 198.583 115.557 199.188 115.419 199.792C115.35 200.195 115.212 200.665 115.074 201.134C114.728 202.343 114.245 203.484 113.692 204.491C113.623 204.625 113.554 204.692 113.554 204.76V204.827C113.416 205.095 113.278 205.364 113.071 205.565C112.932 205.834 112.794 206.035 112.656 206.169C112.38 206.639 112.035 207.042 111.758 207.311L111.689 207.378C111.344 207.781 110.929 208.116 110.515 208.519C109.755 209.19 108.857 209.794 107.89 210.332C107.752 210.466 107.545 210.533 107.338 210.6C106.923 210.801 106.44 211.003 106.094 211.204C105.404 211.473 104.644 211.741 103.815 211.943C101.95 212.278 99.947 212.547 97.8057 212.547ZM46.3472 179.182C50.8369 185.627 56.2245 192.944 60.2997 194.958C77.2223 203.216 89.5171 207.176 97.8748 207.176C99.5325 207.176 101.121 207.042 102.434 206.706C102.986 206.572 103.47 206.438 103.884 206.236H103.953C104.229 206.102 104.506 205.968 104.851 205.834C104.92 205.834 104.92 205.767 104.989 205.767C104.989 205.767 105.058 205.767 105.058 205.699C105.68 205.364 106.232 205.028 106.716 204.625L106.785 204.558C106.992 204.357 107.199 204.155 107.407 203.954C107.545 203.753 107.752 203.551 107.821 203.417C107.89 203.283 107.959 203.148 108.097 203.081C108.097 203.014 108.167 203.014 108.167 202.947C108.236 202.746 108.374 202.611 108.512 202.41C108.581 202.343 108.581 202.276 108.581 202.209C108.581 202.141 108.65 202.141 108.65 202.074C109.064 201.336 109.41 200.53 109.686 199.59C109.686 199.523 109.755 199.456 109.755 199.389C109.824 199.255 109.893 198.986 109.962 198.718C110.101 198.181 110.17 197.711 110.239 197.174C110.377 196.368 110.446 195.697 110.446 194.958C110.446 194.69 110.446 194.488 110.446 194.22C110.446 194.018 110.446 193.884 110.446 193.683V193.213C110.446 189.453 109.548 186.433 107.821 184.284C107.476 183.949 107.2 183.68 106.992 183.412C104.92 181.398 101.812 180.122 97.5294 179.585C93.8686 179.115 89.379 179.182 84.1295 179.786C84.0604 179.786 83.9223 179.786 83.8532 179.786C83.7841 179.786 83.7841 179.786 83.7151 179.786C83.646 179.786 83.5769 179.786 83.5769 179.786L78.811 180.525C78.3965 180.592 77.913 180.659 77.4986 180.726C77.2914 180.793 77.0842 180.793 76.946 180.793C74.943 181.196 72.9399 181.599 71.0059 182.002L70.8677 182.069C69.4172 182.405 67.8285 182.74 65.8945 183.21C64.8585 183.412 63.8915 183.68 62.9244 183.949C62.8554 183.949 62.7863 184.016 62.7172 184.016C62.3719 184.083 62.0956 184.15 61.8884 184.217C61.8193 184.217 61.8193 184.217 61.8193 184.217C61.6811 184.284 61.543 184.284 61.4049 184.284C61.3358 184.284 61.2667 184.284 61.1976 184.351C61.1286 184.351 60.9904 184.419 60.9214 184.419C60.2306 184.62 59.4708 184.687 58.7111 184.687C54.5667 184.754 50.2843 182.203 46.3472 179.182Z" fill="#9E2A2B"/>
<path d="M80.0542 160.385C72.6636 160.385 66.6543 154.545 66.6543 147.362C66.6543 141.655 70.3842 136.688 75.979 134.942C76.1171 134.875 76.2553 134.875 76.3934 134.808C78.8109 134.137 81.5738 134.137 83.7841 134.875C83.9913 134.942 84.1295 134.942 84.3367 135.009C89.7934 136.755 93.4542 141.655 93.4542 147.295C93.4542 154.545 87.4449 160.385 80.0542 160.385ZM77.4986 140.111C74.3213 141.186 72.2491 144.072 72.2491 147.295C72.2491 151.524 75.7718 154.948 80.1233 154.948C84.4748 154.948 87.9975 151.524 87.9975 147.295C87.9975 144.072 85.8563 141.118 82.748 140.111C82.6099 140.111 82.4718 140.044 82.4027 139.977C81.781 139.709 81.0212 139.642 80.1924 139.642C79.4326 139.642 78.6728 139.776 77.9821 139.977C77.7058 140.111 77.5676 140.111 77.4986 140.111Z" fill="#9E2A2B"/>
<path d="M141.459 160.385C134.068 160.385 128.059 154.545 128.059 147.362C128.059 141.79 131.72 136.822 137.108 135.077C139.94 134.137 143.117 134.137 145.811 135.144C151.198 136.956 154.79 141.857 154.79 147.429C154.79 154.545 148.85 160.385 141.459 160.385ZM141.459 139.709C140.561 139.709 139.732 139.843 138.903 140.111C135.726 141.186 133.585 144.072 133.585 147.362C133.585 151.591 137.108 155.015 141.459 155.015C145.742 155.015 149.264 151.591 149.264 147.362C149.264 144.072 147.123 141.186 144.015 140.179C143.946 140.179 143.946 140.179 143.877 140.111C143.186 139.843 142.357 139.709 141.459 139.709Z" fill="#9E2A2B"/>
<path d="M43.4463 141.79H43.17C40.8906 141.723 38.5422 141.118 36.3319 139.91C36.1937 139.843 36.1246 139.843 36.0556 139.776C27.7669 135.345 21.2742 123.865 21.2742 113.661C21.2742 101.578 30.3226 95.4015 38.2659 91.3736C41.4432 89.7624 44.8277 88.3527 47.7287 87.1443C67.138 79.0213 88.1358 74.8591 110.17 74.8591C132.411 74.8591 155.619 78.8199 181.245 87.01C190.155 89.8296 196.579 93.3204 200.999 97.6169C205.558 102.115 207.838 107.485 207.838 113.661C207.838 124.805 200.032 137.091 190.846 140.581C189.326 141.186 187.669 141.521 186.011 141.588C185.942 141.588 185.942 141.588 185.873 141.588C183.524 141.655 181.314 141.186 179.104 140.179H179.035H178.965C178.896 140.179 178.758 140.111 178.689 140.044C156.034 129.84 133.792 124.604 112.449 124.604C91.3131 124.604 70.5225 129.706 50.6298 139.776C50.4916 139.843 50.4225 139.91 50.3535 139.91C50.2153 139.977 50.0772 140.044 49.939 140.111C47.8669 141.253 45.6566 141.79 43.4463 141.79ZM38.404 135.009C38.4731 135.077 38.6112 135.077 38.6803 135.144C40.269 136.016 41.7885 136.419 43.2391 136.486H43.4463C44.7586 136.486 46.1401 136.151 47.3834 135.479C47.5215 135.412 47.5906 135.345 47.7287 135.345C47.8669 135.278 48.005 135.211 48.1432 135.144C68.7957 124.671 90.4152 119.368 112.449 119.368C134.483 119.368 157.484 124.671 180.83 135.211C181.038 135.278 181.245 135.345 181.521 135.479C182.834 136.016 184.077 136.285 185.458 136.285H185.665C186.702 136.218 187.738 136.016 188.774 135.614C195.957 132.928 202.243 122.724 202.243 113.729C202.243 108.962 200.516 105.001 196.993 101.511C193.194 97.8183 187.461 94.7973 179.38 92.1792C154.307 84.1905 131.651 80.2968 110.032 80.2968C88.7575 80.2968 68.4503 84.2576 49.7318 92.1121C46.8999 93.3204 43.6535 94.6631 40.6834 96.2071C30.8752 101.242 26.6618 106.478 26.6618 113.796C26.6618 121.717 32.0494 131.384 38.404 135.009Z" fill="#9E2A2B"/>
<path d="M200.585 45.4554C195.336 45.4554 190.431 43.8442 186.287 40.8232C181.797 37.6009 178.551 32.8345 177.308 27.464C176.893 25.5843 176.686 23.906 176.686 22.2277C176.686 9.40546 187.392 -1 200.585 -1C213.778 -1 224.484 9.40546 224.484 22.2277C224.484 35.0499 213.778 45.4554 200.585 45.4554ZM200.585 4.37056C190.5 4.37056 182.212 12.3593 182.212 22.2277C182.212 23.5032 182.35 24.8458 182.695 26.3227C183.662 30.4178 186.149 34.0429 189.603 36.5268C192.78 38.8764 196.579 40.0848 200.585 40.0848C210.739 40.0848 218.958 32.0961 218.958 22.2277C218.958 12.3593 210.739 4.37056 200.585 4.37056Z" fill="#9E2A2B"/>
<path d="M39.4401 96.4757C39.302 96.4757 39.0948 96.4757 38.9566 96.4085C37.437 96.14 36.47 94.7302 36.7463 93.3205C46.071 42.1659 85.1658 27.7325 118.666 31.2234C150.093 34.5128 178.827 24.443 179.104 24.3088C180.554 23.7717 182.143 24.5102 182.626 25.9199C183.179 27.3297 182.419 28.8737 180.969 29.3437C179.725 29.7465 150.853 39.9505 118.044 36.5268C87.0307 33.2373 50.7679 46.6637 42.1339 94.1932C41.9267 95.5358 40.7525 96.4757 39.4401 96.4757Z" fill="#9E2A2B"/>
<path d="M198.927 102.249C197.822 102.249 196.786 101.578 196.303 100.504C195.75 99.0939 196.51 97.5498 197.96 97.0799C199.204 96.61 199.549 96.0729 199.687 95.6701C200.93 92.3807 195.888 84.0563 191.537 76.6718C183.179 62.7754 172.818 45.5225 186.356 36.4597C187.599 35.587 189.326 35.9226 190.224 37.131C191.122 38.3394 190.777 40.0177 189.533 40.8904C180.899 46.6638 187.185 58.7475 196.303 73.9865C202.035 83.5192 207.009 91.7765 204.867 97.4827C204.315 98.9596 203.002 100.974 199.825 102.115C199.618 102.249 199.273 102.249 198.927 102.249Z" fill="#9E2A2B"/>
<path d="M260.797 52.955H251.256C251.25 52.955 251.245 52.9598 251.245 52.9659V272.034C251.245 272.04 251.25 272.045 251.256 272.045H260.797C260.803 272.045 260.808 272.04 260.808 272.034V52.9659C260.808 52.9598 260.803 52.955 260.797 52.955Z" fill="#161A1D"/>
<g clip-path="url(#clip1_29_22)">
<path d="M318.103 116.853L323.803 127.436C321.904 128.821 319.685 129.875 317.147 130.601C314.597 131.327 312.032 131.689 309.453 131.689C303.483 131.689 299.038 130.087 296.121 126.882C293.205 123.691 291.745 119.161 291.745 113.292V89.0586H285.843V77.1893H291.745V66.0123L309.453 63.9352V77.1893H320.444L318.714 89.0586H309.453V113.094C309.453 116.457 310.776 118.138 313.422 118.138C314.847 118.138 316.408 117.709 318.103 116.853V116.853ZM349.754 75.4089C357.555 75.4089 363.682 77.7966 368.133 82.57C372.57 87.3573 374.789 94.3662 374.789 103.599C374.789 112.435 372.57 119.325 368.133 124.271C363.682 129.216 357.555 131.689 349.754 131.689C341.883 131.689 335.744 129.296 331.334 124.508C326.923 119.735 324.718 112.732 324.718 103.5C324.718 94.6629 326.937 87.7728 331.374 82.8272C335.826 77.8816 341.952 75.4089 349.754 75.4089V75.4089ZM349.754 87.9706C347.378 87.9706 345.648 89.1575 344.564 91.5314C343.479 93.9052 342.935 97.8953 342.935 103.5C342.935 109.302 343.458 113.371 344.502 115.705C345.561 118.053 347.311 119.226 349.754 119.226C352.129 119.226 353.859 118.04 354.944 115.666C356.029 113.292 356.572 109.27 356.572 103.599C356.572 97.8617 356.029 93.8202 354.944 91.472C353.859 89.1377 352.129 87.9706 349.754 87.9706V87.9706ZM437.784 75.4089C441.584 75.4089 444.658 76.7936 447.005 79.5631C449.339 82.3326 450.505 86.0576 450.505 90.7401V129.909H433.001V93.015C433.001 89.8499 432.085 88.2673 430.253 88.2673C428.285 88.2673 426.421 89.9824 424.656 93.4107V129.909H407.253V93.015C407.253 89.8499 406.338 88.2673 404.506 88.2673C402.537 88.2673 400.673 89.9824 398.908 93.4107V129.909H381.404V77.1893H396.873L397.992 83.1239C399.961 80.487 402.077 78.5404 404.343 77.2882C406.622 76.036 409.187 75.4089 412.037 75.4089C414.615 75.4089 416.887 76.1012 418.855 77.486C420.823 78.8708 422.315 80.849 423.333 83.4207C425.301 80.7164 427.451 78.7066 429.785 77.3871C432.132 76.0676 434.798 75.4089 437.784 75.4089V75.4089ZM486.634 116.853L492.333 127.436C490.434 128.821 488.215 129.875 485.677 130.601C483.127 131.327 480.562 131.689 477.983 131.689C472.013 131.689 467.568 130.087 464.651 126.882C461.735 123.691 460.275 119.161 460.275 113.292V89.0586H454.373V77.1893H460.275V66.0123L477.983 63.9352V77.1893H488.974L487.244 89.0586H477.983V113.094C477.983 116.457 479.306 118.138 481.952 118.138C483.377 118.138 484.938 117.709 486.634 116.853V116.853ZM541.284 102.708C541.284 104.356 541.147 106.303 540.877 108.544H510.956C511.364 112.698 512.347 115.533 513.908 117.05C515.469 118.568 517.74 119.325 520.726 119.325C522.625 119.325 524.478 118.975 526.283 118.277C528.074 117.59 530.055 116.491 532.226 114.973L539.35 124.271C533.651 129.216 526.934 131.689 519.2 131.689C510.718 131.689 504.274 129.183 499.864 124.172C495.453 119.161 493.249 112.368 493.249 103.796C493.249 98.3226 494.165 93.4443 495.996 89.1575C497.828 84.8707 500.562 81.5077 504.199 79.0686C507.822 76.6294 512.245 75.4089 517.47 75.4089C524.797 75.4089 530.598 77.7629 534.872 82.4711C539.147 87.1931 541.284 93.9389 541.284 102.708V102.708ZM523.881 98.5541V97.8617C523.881 94.0378 523.427 91.1812 522.517 89.296C521.595 87.4226 519.979 86.4869 517.673 86.4869C515.571 86.4869 513.975 87.3573 512.89 89.0982C511.805 90.8528 511.125 94.0041 510.855 98.5541H523.881ZM578.735 75.4089C582.942 75.4089 586.231 76.76 588.607 79.4642C590.982 82.1684 592.168 85.9271 592.168 90.7401V129.909H574.461V93.015C574.461 91.2999 574.21 90.0813 573.707 89.3553C573.193 88.6293 572.46 88.2673 571.509 88.2673C569.541 88.2673 567.404 90.113 565.098 93.8063V129.909H547.39V77.1893H562.859L564.08 83.025C566.183 80.4533 568.409 78.5404 570.756 77.2882C573.091 76.036 575.749 75.4089 578.735 75.4089V75.4089ZM619.341 75.4089C623.005 75.4089 626.485 76.0023 629.782 77.1893C633.065 78.3762 635.862 79.9924 638.168 82.0359L631.859 91.3335C627.991 88.7619 624.226 87.476 620.562 87.476C619.001 87.476 617.8 87.7866 616.959 88.4058C616.105 89.0388 615.677 89.8835 615.677 90.9379C615.677 91.7945 615.915 92.5205 616.39 93.1139C616.864 93.7074 617.794 94.3464 619.178 95.0328C620.576 95.7311 622.734 96.5758 625.651 97.5649C630.536 99.2801 634.152 101.389 636.499 103.895C638.834 106.402 640 109.796 640 114.083C640 117.644 639.037 120.756 637.11 123.42C635.17 126.097 632.455 128.142 628.968 129.553C625.467 130.977 621.513 131.689 617.102 131.689C612.828 131.689 608.844 130.977 605.154 129.553C601.45 128.142 598.309 126.184 595.73 123.677L603.974 114.677C608.248 118.04 612.353 119.721 616.288 119.721C618.12 119.721 619.53 119.359 620.521 118.633C621.498 117.907 621.987 116.886 621.987 115.567C621.987 114.445 621.749 113.535 621.274 112.837C620.8 112.15 619.905 111.478 618.588 110.819C617.259 110.16 615.203 109.369 612.421 108.445C607.468 106.73 603.858 104.568 601.592 101.957C599.313 99.3592 598.173 96.0813 598.173 92.1248C598.173 88.9597 599.007 86.1051 600.676 83.5591C602.331 81.027 604.753 79.0349 607.943 77.5849C611.132 76.1349 614.93 75.4089 619.341 75.4089V75.4089Z" fill="#9E2A2B"/>
<path d="M321.055 184.409C326.89 184.409 331.319 186.816 334.346 191.629C337.358 196.442 338.864 203.433 338.864 212.599C338.864 218.203 338.085 223.117 336.524 227.336C334.963 231.556 332.724 234.834 329.807 237.168C326.89 239.516 323.396 240.689 319.325 240.689C316.679 240.689 314.291 240.129 312.16 239.008C310.017 237.886 308.232 236.272 306.807 234.161L306.095 238.909H290.32V165.418L308.028 163.638V191.036C309.453 188.992 311.32 187.376 313.626 186.189C315.932 185.002 318.409 184.409 321.055 184.409ZM314.033 228.325C316.204 228.325 317.865 227.172 319.019 224.864C320.174 222.555 320.75 218.468 320.75 212.599C320.75 206.401 320.241 202.227 319.223 200.076C318.205 197.94 316.713 196.872 314.745 196.872C312.303 196.872 310.064 198.618 308.028 202.114V224.27C309.657 226.974 311.657 228.325 314.033 228.325ZM345.785 186.189H363.493V238.909H345.785V186.189ZM354.639 158C357.555 158 359.945 158.904 361.803 160.71C363.676 162.53 364.612 164.791 364.612 167.495C364.612 170.265 363.676 172.54 361.803 174.32C359.945 176.1 357.555 176.991 354.639 176.991C351.722 176.991 349.332 176.1 347.474 174.32C345.602 172.54 344.665 170.265 344.665 167.495C344.665 164.791 345.602 162.53 347.474 160.71C349.332 158.904 351.722 158 354.639 158ZM395.143 184.409C402.945 184.409 409.065 186.797 413.502 191.57C417.954 196.357 420.178 203.366 420.178 212.599C420.178 221.435 417.954 228.325 413.502 233.271C409.065 238.217 402.945 240.689 395.143 240.689C387.272 240.689 381.133 238.296 376.723 233.508C372.312 228.735 370.108 221.732 370.108 212.5C370.108 203.663 372.332 196.773 376.784 191.827C381.221 186.882 387.341 184.409 395.143 184.409V184.409ZM395.143 196.971C392.768 196.971 391.038 198.158 389.953 200.531C388.868 202.905 388.324 206.895 388.324 212.5C388.324 218.302 388.854 222.371 389.912 224.705C390.956 227.053 392.7 228.227 395.143 228.227C397.518 228.227 399.248 227.04 400.333 224.666C401.418 222.292 401.961 218.27 401.961 212.599C401.961 206.862 401.418 202.82 400.333 200.472C399.248 198.138 397.518 196.971 395.143 196.971V196.971ZM470.249 177.485L474.218 189.552C471.098 191.002 466.483 191.728 460.377 191.728C463.701 193.113 466.143 194.874 467.705 197.01C469.266 199.16 470.045 201.95 470.045 205.378C470.045 208.806 469.164 211.841 467.399 214.478C465.635 217.115 463.105 219.18 459.807 220.67C456.524 222.147 452.677 222.885 448.267 222.885C446.095 222.885 444.332 222.721 442.975 222.391C442.024 222.984 441.55 223.874 441.55 225.061C441.55 226.05 441.902 226.788 442.608 227.277C443.327 227.777 444.705 228.029 446.74 228.029H453.253C459.496 228.029 464.428 229.447 468.051 232.282C471.688 235.117 473.505 238.81 473.505 243.36C473.505 248.834 471.179 253.152 466.524 256.317C461.883 259.482 455.254 261.065 446.638 261.065C440.261 261.065 435.26 260.373 431.637 258.988C428 257.603 425.47 255.659 424.045 253.152C422.621 250.646 421.908 247.548 421.908 243.854H437.784C437.784 246.096 438.395 247.698 439.616 248.662C440.837 249.611 443.245 250.086 446.842 250.086C450.166 250.086 452.474 249.591 453.762 248.602C455.051 247.613 455.696 246.262 455.696 244.547C455.696 241.316 453.593 239.7 449.386 239.7H443.687C437.988 239.7 433.801 238.757 431.129 236.871C428.442 234.998 427.099 232.48 427.099 229.315C427.099 227.336 427.675 225.437 428.829 223.617C429.983 221.811 431.475 220.314 433.306 219.127C430.117 217.281 427.811 215.17 426.386 212.796C424.961 210.423 424.249 207.489 424.249 203.993C424.249 197.861 426.331 193.06 430.498 189.592C434.676 186.136 440.363 184.443 447.554 184.508C452.099 184.573 456.068 183.993 459.461 182.767C462.854 181.554 466.449 179.794 470.249 177.485V177.485ZM447.554 195.685C443.62 195.685 441.652 198.322 441.652 203.598C441.652 209.137 443.62 211.906 447.554 211.906C449.522 211.906 450.98 211.247 451.93 209.928C452.881 208.608 453.355 206.432 453.355 203.4C453.355 200.63 452.881 198.652 451.93 197.465C450.98 196.278 449.522 195.685 447.554 195.685V195.685ZM507.598 184.607C509.159 184.607 510.753 184.903 512.381 185.497L509.532 202.015C508.107 201.619 506.682 201.422 505.257 201.422C502.544 201.422 500.509 202.357 499.151 204.231C497.794 206.116 496.709 208.905 495.895 212.599V238.909H478.187V186.189H493.656L494.979 195.19C496.2 191.827 497.895 189.222 500.067 187.376C502.239 185.531 504.749 184.607 507.598 184.607V184.607ZM557.567 223.479C557.567 225.259 557.77 226.545 558.178 227.336C558.585 228.128 559.364 228.755 560.518 229.216L556.956 240.393C553.633 240.129 550.938 239.449 548.876 238.355C546.8 237.273 545.151 235.512 543.93 233.073C540.537 238.151 535.619 240.689 529.173 240.689C524.288 240.689 520.386 239.172 517.47 236.139C514.553 233.107 513.094 229.117 513.094 224.171C513.094 218.369 515.115 213.93 519.159 210.858C523.189 207.797 529.037 206.268 536.704 206.268H540.266V204.29C540.266 201.323 539.757 199.311 538.74 198.256C537.722 197.202 535.823 196.674 533.04 196.674C529.784 196.674 525.577 197.564 520.421 199.344L516.554 188.464C519.54 187.145 522.782 186.136 526.283 185.438C529.77 184.751 533.075 184.409 536.195 184.409C543.523 184.409 548.917 185.938 552.377 188.998C555.837 192.071 557.567 196.838 557.567 203.301V223.479ZM534.669 228.622C535.823 228.622 536.893 228.26 537.885 227.534C538.862 226.808 539.655 225.853 540.266 224.666V215.467H538.231C535.518 215.467 533.535 216.041 532.287 217.188C531.025 218.349 530.394 220.149 530.394 222.589C530.394 224.502 530.767 225.985 531.514 227.04C532.261 228.094 533.311 228.622 534.669 228.622V228.622ZM591.965 176.1C590.133 176.1 588.81 176.561 587.996 177.485C587.182 178.409 586.775 179.924 586.775 182.035V186.189H597.664L595.73 198.059H586.775V238.909H569.067V198.059H562.35V186.189H569.067V182.134C569.067 176.53 570.797 172.045 574.257 168.682C577.717 165.319 582.771 163.638 589.421 163.638C594.509 163.638 599.292 164.759 603.77 167.001L599.089 177.881C596.646 176.694 594.271 176.1 591.965 176.1V176.1Z" fill="#9E2A2B"/>
</g>
</g>
<defs>
<clipPath id="clip0_29_22">
<rect width="640" height="327" fill="white" transform="translate(0 -1)"/>
</clipPath>
<clipPath id="clip1_29_22">
<rect width="354.157" height="218" fill="white" transform="translate(285.843 53.5)"/>
</clipPath>
</defs>
</svg>
